<svg xmlns="http://www.w3.org/2000/svg" viewBox="0 0 512 512">
  <defs>
    <linearGradient id="blue" x1="96" y1="88" x2="416" y2="424" gradientUnits="userSpaceOnUse">
      <stop stop-color="#7ad4ff"/>
      <stop offset=".45" stop-color="#22a7ff"/>
      <stop offset="1" stop-color="#075fbe"/>
    </linearGradient>
    <linearGradient id="steel" x1="122" y1="180" x2="390" y2="332" gradientUnits="userSpaceOnUse">
      <stop stop-color="#f4fbff"/>
      <stop offset=".52" stop-color="#8fb6cc"/>
      <stop offset="1" stop-color="#f4fbff"/>
    </linearGradient>
    <filter id="softGlow" x="-50%" y="-50%" width="200%" height="200%">
      <feGaussianBlur stdDeviation="10" result="blur"/>
      <feColorMatrix in="blur" values="0 0 0 0 0.13 0 0 0 0 0.65 0 0 0 0 1 0 0 0 .7 0"/>
      <feBlend in="SourceGraphic"/>
    </filter>
  </defs>
  <rect width="512" height="512" rx="104" fill="#05070b"/>
  <circle cx="256" cy="256" r="170" fill="none" stroke="#0c2638" stroke-width="22"/>
  <path d="M143 366c56 33 135 40 204 12 48-19 88-55 113-103" fill="none" stroke="#123957" stroke-width="18" stroke-linecap="round"/>
  <g filter="url(#softGlow)" transform="rotate(-15 256 246)">
    <rect x="134" y="226" width="244" height="40" rx="20" fill="url(#steel)"/>
    <rect x="73" y="194" width="42" height="104" rx="14" fill="#22a7ff"/>
    <rect x="114" y="174" width="40" height="144" rx="14" fill="#075fbe"/>
    <rect x="154" y="206" width="34" height="80" rx="13" fill="#0b7de0"/>
    <rect x="324" y="206" width="34" height="80" rx="13" fill="#0b7de0"/>
    <rect x="358" y="174" width="40" height="144" rx="14" fill="#075fbe"/>
    <rect x="397" y="194" width="42" height="104" rx="14" fill="#22a7ff"/>
  </g>
  <path d="M183 354h146" stroke="url(#blue)" stroke-width="16" stroke-linecap="round" opacity=".9"/>
  <path d="M183 386h96" stroke="#7ad4ff" stroke-width="10" stroke-linecap="round" opacity=".48"/>
</svg>
