<svg xmlns="http://www.w3.org/2000/svg" viewBox="0 0 1024 1024">
  <defs>
    <linearGradient id="blue" x1="174" y1="164" x2="850" y2="858" gradientUnits="userSpaceOnUse">
      <stop stop-color="#8edcff"/>
      <stop offset=".46" stop-color="#22a7ff"/>
      <stop offset="1" stop-color="#065dbc"/>
    </linearGradient>
    <linearGradient id="steel" x1="232" y1="382" x2="790" y2="640" gradientUnits="userSpaceOnUse">
      <stop stop-color="#f9fdff"/>
      <stop offset=".5" stop-color="#83adc7"/>
      <stop offset="1" stop-color="#f9fdff"/>
    </linearGradient>
  </defs>
  <rect width="1024" height="1024" rx="216" fill="#05070b"/>
  <circle cx="512" cy="512" r="340" fill="none" stroke="#0b2a40" stroke-width="42"/>
  <path d="M286 728c111 64 267 77 405 22 95-38 176-110 226-208" fill="none" stroke="#123957" stroke-width="34" stroke-linecap="round"/>
  <g transform="rotate(-15 512 500)">
    <rect x="262" y="454" width="500" height="78" rx="39" fill="url(#steel)"/>
    <rect x="140" y="386" width="82" height="212" rx="26" fill="#22a7ff"/>
    <rect x="220" y="348" width="78" height="288" rx="26" fill="#075fbe"/>
    <rect x="298" y="414" width="68" height="156" rx="25" fill="#0b7de0"/>
    <rect x="658" y="414" width="68" height="156" rx="25" fill="#0b7de0"/>
    <rect x="726" y="348" width="78" height="288" rx="26" fill="#075fbe"/>
    <rect x="802" y="386" width="82" height="212" rx="26" fill="#22a7ff"/>
  </g>
  <path d="M364 708h292" stroke="url(#blue)" stroke-width="30" stroke-linecap="round"/>
  <path d="M364 770h194" stroke="#8edcff" stroke-width="18" stroke-linecap="round" opacity=".55"/>
</svg>
